# xmcd CD database file
#
# Track frame offsets:
#	151
#	15358
#	39342
#	54517
#	73747
#	96738
#	122004
#	145506
#	166908
#	186460
#	203382
#	228324
#	245687
#	266057
#	287703
#
# Disc length: 4201 seconds
#
# Revision: 0
# Processed by: cddbd v1.4PL0 Copyright (c) Steve Scherf et al.
# Submitted via: CDex 1.51
#
DISCID=d410670f
DTITLE=Various Artist - Piano Dreamers
DYEAR=2002
DGENRE=New Age
TTITLE0=Time Windows - Danny Wright
TTITLE1=Twilight's Embrace - Kevin Kern
TTITLE2=Wonderful Glider - Bernard Koch
TTITLE3=Buchanan Mist - Paul Machlis
TTITLE4=Gone - Jim Chappell
TTITLE5=Renouncement - Michael Hoppe
TTITLE6=The Frontier In Her Eyes - Brian Becvar
TTITLE7=Magic Flower - 2002
TTITLE8=Sundial Dreams - Kevin Kern
TTITLE9=New Beginning - Danny Wright
TTITLE10=Morning Prayer - Peter Kater
TTITLE11=Reminiscence Of A Motion Picture - Bernard Koch
TTITLE12=The Unforgetting Heart - Michael Hoppe
TTITLE13=NightBlossom - Paul Machlis
TTITLE14=Until Tomorrow - Kevin Kern 
EXTD=YEAR: 2002
EXTT0=
EXTT1=
EXTT2=
EXTT3=
EXTT4=
EXTT5=
EXTT6=
EXTT7=
EXTT8=
EXTT9=
EXTT10=
EXTT11=
EXTT12=
EXTT13=
EXTT14=
PLAYORDER=
